<?xml version="1.0" standalone="no"?>
<!DOCTYPE svg PUBLIC "-//W3C//DTD SVG 20010904//EN"
 "http://www.w3.org/TR/2001/REC-SVG-20010904/DTD/svg10.dtd">
<svg version="1.0" xmlns="http://www.w3.org/2000/svg"
 width="1920.000000pt" height="1080.000000pt" viewBox="0 0 1920.000000 1080.000000"
 preserveAspectRatio="xMidYMid meet">

<g transform="translate(0.000000,1080.000000) scale(0.100000,-0.100000)"
fill="#000000" stroke="none">
<path d="M10 5400 l0 -5400 9595 0 9595 0 0 5400 0 5400 -9595 0 -9595 0 0
-5400z m1825 5340 c4 -6 1 -17 -5 -26 -15 -18 -42 0 -33 22 6 16 29 19 38 4z
m9860 -450 c3 -5 1 -10 -4 -10 -6 0 -11 5 -11 10 0 6 2 10 4 10 3 0 8 -4 11
-10z m6648 -265 c1 -5 -6 -11 -15 -13 -11 -2 -18 3 -18 13 0 17 30 18 33 0z
m-9873 -70 c0 -7 -7 -16 -15 -19 -20 -7 -33 23 -14 34 16 10 29 4 29 -15z
m4400 -1 c0 -19 -28 -30 -42 -16 -8 8 -8 15 1 26 14 17 41 10 41 -10z m-6711
-310 c-9 -11 -15 -12 -25 -3 -11 9 -12 15 -3 25 9 11 15 12 25 3 11 -9 12 -15
3 -25z m-2639 -644 c4 -6 13 -13 21 -14 71 -14 89 -20 89 -29 0 -7 4 -7 12 1
13 13 29 16 27 5 -3 -20 2 -27 10 -14 8 12 12 12 25 2 8 -7 21 -9 28 -5 7 4
10 4 6 -1 -10 -11 17 -35 40 -35 19 0 85 -20 127 -39 11 -5 45 -19 75 -31 30
-12 88 -38 128 -56 41 -19 76 -34 80 -34 3 0 24 -9 46 -19 57 -28 305 -126
341 -136 37 -10 36 -10 57 -19 10 -5 29 -9 43 -10 14 0 25 -4 25 -8 0 -6 51
-22 75 -23 6 0 16 -4 22 -8 7 -5 38 -12 70 -17 137 -23 266 -71 413 -156 61
-34 119 -66 130 -69 11 -3 26 -12 33 -18 15 -15 168 -91 306 -152 58 -26 139
-66 180 -90 64 -37 148 -78 236 -115 11 -5 54 -23 95 -41 115 -49 215 -108
450 -267 229 -155 409 -287 506 -372 32 -28 118 -91 189 -140 72 -48 153 -108
180 -132 28 -25 91 -72 140 -105 90 -61 144 -111 207 -189 18 -23 49 -61 68
-84 19 -24 42 -55 51 -69 9 -14 28 -35 42 -46 15 -10 32 -32 38 -48 7 -16 34
-51 61 -80 26 -28 48 -54 48 -59 0 -6 29 -74 62 -144 10 -22 174 -109 251
-133 20 -7 37 -17 37 -22 0 -6 4 -8 9 -4 5 3 15 -1 23 -8 13 -13 58 -18 58 -7
0 3 -5 11 -12 18 -7 7 -9 12 -6 12 4 0 -9 17 -27 38 -19 20 -35 41 -35 46 0 5
-26 41 -57 80 -31 39 -82 103 -113 141 -31 39 -67 86 -80 105 -13 19 -27 37
-30 40 -11 9 -127 175 -214 305 -92 137 -190 326 -226 435 -12 36 -27 71 -32
78 -6 7 -8 15 -5 18 3 3 1 18 -3 34 -9 31 13 134 33 158 6 7 19 11 29 9 10 -3
20 -1 23 3 3 5 19 4 37 0 17 -5 34 -8 38 -5 3 2 34 -9 68 -26 34 -16 65 -29
69 -29 5 0 22 -13 38 -28 17 -15 46 -38 65 -49 50 -32 262 -249 385 -396 26
-32 50 -55 53 -52 3 3 24 -23 48 -58 23 -34 54 -75 68 -92 l26 -30 -10 28
c-18 51 -10 43 34 -33 42 -72 119 -160 159 -182 17 -8 18 -7 12 12 -4 13 -3
20 2 17 5 -4 10 -1 11 6 6 65 12 109 17 117 3 5 1 18 -4 29 -8 14 -7 22 4 31
8 7 12 16 10 21 -3 4 3 17 15 29 11 11 20 22 20 25 -1 16 28 32 42 24 8 -5 31
-9 49 -10 19 -2 42 -9 52 -17 9 -8 17 -11 17 -6 0 5 4 4 8 -2 10 -14 82 -57
82 -49 0 4 8 1 18 -6 9 -7 14 -10 10 -5 -3 4 1 16 10 27 9 11 18 27 18 37 8
91 15 222 19 342 4 139 12 282 20 345 2 17 9 86 15 155 6 69 16 133 21 142 5
10 6 24 3 32 -3 7 6 59 20 114 14 56 28 116 31 134 7 41 32 123 50 163 8 17
17 46 20 65 3 19 11 40 16 47 6 7 9 18 6 25 -2 7 2 25 9 39 11 23 11 29 0 38
-7 6 -20 9 -29 5 -19 -7 -32 29 -19 52 8 14 10 14 25 -1 9 -9 21 -24 26 -33 9
-15 11 -15 29 1 11 10 23 32 26 50 l7 32 25 -30 c13 -16 30 -37 37 -45 30 -34
58 -81 68 -112 6 -18 26 -71 44 -118 66 -173 89 -262 117 -459 12 -80 23 -166
25 -191 10 -130 23 -438 25 -595 1 -79 6 -132 15 -154 12 -28 12 -42 3 -77 -7
-24 -10 -55 -6 -69 5 -21 12 -25 42 -25 26 0 41 7 55 24 11 14 36 30 57 37 20
6 42 16 49 21 7 5 14 5 18 -2 3 -6 11 -7 17 -4 7 5 9 1 5 -9 -4 -11 -2 -14 7
-11 12 5 21 -11 45 -83 5 -16 9 -35 9 -43 1 -18 11 -132 16 -174 4 -36 25 -50
46 -31 52 49 71 71 129 145 36 45 70 87 76 94 6 6 31 38 57 71 25 33 60 76 78
95 17 19 48 55 68 80 56 67 293 300 347 340 26 19 55 42 64 51 14 14 57 41 71
44 38 9 60 19 60 27 0 5 8 8 18 7 9 -2 28 3 41 10 13 7 21 8 17 3 -3 -6 -2
-13 4 -17 5 -3 10 -1 10 4 0 17 15 13 42 -12 40 -37 48 -61 42 -119 -8 -71
-11 -93 -14 -95 -1 -2 -3 -7 -4 -11 0 -5 -12 -33 -25 -63 -13 -30 -32 -73 -42
-96 -20 -45 -116 -209 -168 -284 -17 -26 -31 -50 -31 -54 0 -3 -6 -12 -12 -19
-14 -14 -27 -32 -86 -113 -51 -72 -182 -241 -267 -345 -38 -47 -92 -114 -120
-148 -27 -35 -54 -68 -60 -74 -25 -27 -44 -65 -35 -71 6 -3 10 -2 10 4 0 5 9
9 19 8 11 0 39 8 63 20 23 12 84 36 135 53 76 27 103 32 154 28 48 -3 66 -9
79 -26 10 -12 21 -18 25 -14 4 4 3 -2 -3 -13 -11 -22 5 -55 27 -55 6 0 11 -4
11 -9 0 -5 17 -3 38 5 20 7 47 13 59 14 12 0 72 23 132 51 96 45 111 55 111
76 0 23 -38 46 -134 83 -14 5 -26 14 -26 20 0 5 -7 10 -15 10 -21 0 -65 48
-65 70 0 56 23 119 55 151 19 19 35 38 35 42 0 4 4 13 10 20 61 74 80 101 80
113 0 7 28 45 63 84 35 38 70 82 78 97 37 73 67 106 148 162 47 32 100 73 116
91 17 18 86 71 155 118 137 94 182 128 280 213 93 80 231 180 491 355 217 146
318 205 439 254 109 44 252 114 370 180 36 19 87 44 113 54 57 21 305 148 392
199 164 98 381 183 513 202 72 10 328 95 462 152 19 8 44 18 55 23 11 4 41 17
66 29 25 11 49 21 53 21 4 0 53 21 109 46 167 76 178 80 269 109 48 16 85 32
83 36 -4 6 15 14 65 26 8 2 35 5 60 8 24 2 49 10 55 17 11 14 29 19 93 23 44
3 52 -4 27 -25 -8 -7 -15 -18 -15 -24 0 -6 -11 -18 -23 -27 -45 -33 -281 -187
-487 -319 -116 -74 -306 -198 -422 -275 -116 -77 -218 -144 -227 -150 -8 -5
-21 -16 -29 -22 -7 -7 -20 -13 -28 -13 -8 0 -14 -9 -14 -21 0 -13 -4 -18 -12
-13 -6 4 -8 3 -4 -4 6 -10 -29 -81 -47 -93 -5 -4 -18 -4 -28 -2 -12 4 -19 0
-19 -10 0 -16 -30 -42 -188 -165 -57 -44 -116 -91 -130 -104 -15 -13 -43 -34
-62 -48 -84 -58 -139 -137 -110 -155 10 -6 9 -18 -5 -68 -5 -19 -2 -35 10 -53
9 -15 12 -24 7 -20 -6 3 -13 2 -17 -4 -3 -5 1 -10 9 -10 19 0 21 -11 4 -28 -9
-9 -8 -12 4 -12 9 0 19 6 21 13 3 7 6 5 6 -5 1 -11 -6 -18 -16 -18 -16 0 -16
-1 0 -12 15 -12 13 -18 -21 -73 -38 -59 -112 -135 -133 -135 -5 0 -7 -5 -3
-12 4 -6 3 -8 -3 -5 -6 4 -40 -13 -76 -37 -37 -25 -76 -47 -87 -51 -12 -4 -19
-9 -16 -12 11 -11 -16 -33 -40 -33 -17 0 -31 -10 -44 -32 -11 -18 -20 -29 -20
-25 0 5 -5 5 -10 2 -8 -5 -7 -11 1 -21 9 -11 15 -11 25 -3 11 9 14 6 14 -19 0
-24 5 -31 23 -34 14 -2 21 -9 21 -20 -1 -10 2 -15 7 -12 12 7 11 2 -7 -52 -8
-25 -13 -48 -10 -51 3 -3 -13 -21 -35 -39 -23 -19 -36 -34 -30 -34 7 0 11 -6
10 -12 -3 -20 12 -49 22 -42 5 3 12 -8 15 -25 5 -24 12 -31 29 -31 22 0 50
-22 40 -32 -3 -2 5 -4 17 -4 15 1 24 -6 26 -19 2 -11 6 -27 9 -35 11 -27 4
-38 -69 -109 -66 -66 -160 -136 -235 -175 -26 -13 -33 -23 -33 -47 0 -17 -6
-32 -15 -35 -19 -8 -9 -24 15 -24 13 0 17 5 13 20 -3 12 0 20 7 20 7 0 10 -7
6 -15 -3 -8 -1 -15 4 -15 12 0 9 -22 -5 -32 -6 -5 -2 -8 7 -8 10 0 20 -11 24
-26 l6 -25 20 21 c11 12 23 19 26 15 4 -3 2 -9 -3 -13 -14 -10 -17 -32 -4 -32
5 0 7 -4 4 -10 -3 -5 0 -10 7 -10 8 0 22 -9 31 -21 20 -23 22 -16 -33 -119
-16 -30 -69 -80 -84 -80 -5 0 -6 -3 -3 -7 4 -3 -1 -12 -11 -19 -16 -11 -15
-13 8 -18 14 -3 59 -7 100 -10 41 -3 76 -6 77 -6 1 0 5 -15 8 -34 5 -24 2 -42
-10 -60 -10 -14 -15 -35 -12 -46 3 -11 1 -17 -4 -14 -5 3 -17 -8 -27 -25 -9
-17 -20 -31 -24 -31 -5 0 -8 -12 -8 -26 0 -14 -4 -23 -9 -19 -5 3 -12 1 -16
-5 -3 -5 -1 -10 4 -10 18 0 -30 -49 -76 -78 -33 -21 -41 -31 -37 -47 3 -12 7
-30 8 -41 3 -15 10 -18 34 -16 33 3 53 -14 28 -24 -25 -10 -19 -22 14 -29 37
-8 89 -33 113 -53 38 -33 178 -102 208 -103 20 0 17 -4 -19 -22 -26 -13 -41
-26 -38 -34 3 -8 -2 -13 -14 -13 -11 0 -34 -8 -52 -18 -46 -26 -126 -52 -159
-52 -15 0 -30 -4 -33 -9 -4 -7 -51 -19 -136 -36 -3 0 -25 -6 -50 -13 -25 -6
-56 -13 -69 -14 -35 -4 -66 -59 -51 -88 6 -12 14 -19 17 -16 3 3 11 -1 17 -9
6 -8 52 -39 102 -68 90 -54 136 -91 147 -120 5 -14 -24 -60 -37 -57 -15 3
-116 -24 -116 -32 0 -4 -19 -8 -42 -7 -24 0 -54 -2 -67 -5 -13 -3 -42 -6 -65
-8 -23 -1 -71 -17 -110 -36 -37 -19 -80 -36 -95 -38 -14 -1 -42 -6 -61 -10
-19 -4 -39 -6 -43 -5 -5 1 -6 -3 -2 -9 3 -5 1 -10 -5 -10 -6 0 -8 -4 -5 -10 3
-5 -1 -10 -9 -10 -20 0 -20 -5 0 -35 9 -13 13 -28 10 -34 -4 -5 5 -18 19 -29
14 -11 25 -25 25 -31 0 -6 4 -11 9 -11 10 0 23 -30 18 -41 -1 -3 4 -13 10 -21
11 -12 9 -17 -10 -26 -12 -6 -29 -13 -37 -14 -21 -4 -44 -28 -47 -48 -2 -17
33 -48 151 -135 67 -49 82 -76 56 -100 -10 -9 -24 -15 -32 -14 -7 2 -28 -1
-46 -5 -50 -12 -285 21 -467 65 -108 27 -215 36 -197 18 14 -15 16 -33 2 -24
-6 3 -7 -1 -4 -9 4 -10 1 -17 -7 -17 -8 -1 -25 -3 -39 -4 -48 -5 -207 24 -535
99 -394 89 -425 94 -425 73 0 -14 39 -45 144 -117 12 -8 47 -36 77 -62 38 -32
176 -111 435 -246 208 -110 397 -210 419 -223 150 -90 155 -103 35 -94 -49 4
-90 3 -90 -1 0 -5 43 -43 96 -84 116 -91 149 -124 139 -140 -20 -32 -91 -7
-718 249 -197 81 -296 105 -323 79 -13 -14 30 -69 117 -147 52 -47 100 -96
107 -110 7 -14 20 -33 28 -42 8 -8 14 -26 14 -38 0 -13 11 -45 24 -71 33 -66
41 -106 22 -113 -22 -9 -93 0 -166 21 -36 10 -75 16 -88 14 -30 -5 -44 -42
-31 -81 17 -48 8 -75 -26 -81 -16 -3 -39 -2 -50 4 -11 5 -27 13 -37 17 -35 17
-111 20 -143 5 -17 -8 -55 -18 -85 -21 -44 -5 -63 -2 -102 16 -26 12 -48 26
-48 30 0 4 -11 9 -23 13 -48 12 -205 144 -313 261 -60 66 -112 122 -116 123
-5 2 -8 8 -8 14 0 6 -8 18 -18 27 -10 9 -36 39 -58 68 -21 28 -73 96 -114 150
-41 54 -74 101 -72 106 1 4 -5 7 -12 7 -13 0 -13 -5 1 -38 8 -20 22 -50 30
-66 8 -15 10 -25 4 -21 -7 3 -32 47 -56 96 -42 83 -59 107 -53 76 2 -6 -3 -11
-10 -9 -8 1 -11 -2 -7 -8 7 -11 13 -154 15 -325 1 -44 -3 -93 -8 -110 -34
-110 -96 -178 -164 -179 -21 0 -38 -4 -38 -7 0 -4 -9 -11 -20 -14 -11 -4 -18
-11 -15 -16 4 -5 -1 -9 -9 -9 -26 0 -62 -83 -72 -165 -5 -45 -19 -127 -39
-230 -20 -102 -24 -133 -30 -200 -8 -96 -16 -135 -27 -135 -5 0 -8 -5 -6 -12
3 -7 -11 -50 -29 -97 -18 -46 -33 -91 -33 -98 0 -16 -22 -66 -83 -193 -23 -47
-42 -92 -43 -100 -3 -34 -28 -96 -45 -113 -18 -17 -19 -16 -19 28 0 44 -19 66
-21 23 0 -22 -1 -22 -11 2 -24 60 -41 89 -49 84 -5 -3 -9 4 -9 14 0 11 -7 25
-14 32 -8 6 -22 33 -31 58 -10 26 -24 63 -32 82 -8 20 -15 42 -17 50 -2 8 -9
29 -16 45 -15 36 -52 172 -54 200 -1 11 -6 29 -12 40 -15 27 -51 231 -57 317
-1 21 -5 38 -10 38 -4 0 -6 3 -5 8 4 15 -15 95 -28 120 -8 15 -14 23 -14 18 0
-6 -10 1 -21 13 -17 18 -22 35 -21 77 0 31 -4 54 -10 54 -6 0 -8 6 -5 14 3 8
-3 17 -16 21 -12 4 -24 8 -27 9 -3 2 -31 6 -63 10 -31 5 -60 12 -63 17 -3 5
-16 9 -29 9 -13 0 -27 5 -30 10 -3 6 1 10 10 10 9 0 15 3 13 8 -3 4 -10 22
-17 40 -7 17 -16 32 -21 32 -6 0 -15 58 -23 160 -2 19 2 86 8 148 6 62 8 118
3 125 -4 6 -5 23 -2 37 4 20 3 22 -5 10 -10 -13 -11 -13 -11 0 0 13 -1 13 -10
0 -9 -13 -10 -13 -11 0 0 9 -4 7 -11 -7 -6 -13 -15 -23 -19 -23 -5 0 -6 -7 -3
-15 4 -8 1 -16 -5 -16 -6 -1 -15 -2 -21 -3 -12 -1 -39 -38 -40 -53 0 -7 -13
-25 -29 -40 -16 -16 -29 -32 -30 -38 -3 -15 -35 -56 -102 -127 -32 -35 -59
-66 -59 -69 0 -3 -9 -17 -21 -30 -95 -110 -119 -136 -153 -168 -22 -20 -62
-58 -90 -85 -138 -132 -266 -203 -383 -212 -42 -3 -73 -1 -73 4 0 8 -40 10
-47 2 -3 -3 -5 -3 -58 -14 -22 -4 -44 -11 -50 -16 -5 -4 -23 -10 -40 -14 -16
-4 -37 -9 -46 -12 -41 -12 -63 55 -33 101 26 40 28 81 5 102 -20 18 -26 19
-98 6 -77 -13 -127 -10 -138 8 -4 5 6 36 21 69 15 33 24 63 21 67 -4 3 -3 11
2 17 5 6 12 29 15 50 6 38 25 63 116 156 74 75 81 86 74 114 -4 18 -11 25 -23
22 -9 -3 -37 -7 -63 -11 -46 -5 -169 -47 -298 -101 -147 -60 -380 -146 -448
-164 -126 -33 -128 -10 -9 91 156 132 157 134 57 126 -162 -14 -94 36 455 328
152 80 222 125 257 161 18 20 59 56 91 81 92 72 110 91 103 109 -7 17 -4 17
-136 -2 -14 -2 -74 -13 -135 -24 -60 -12 -146 -28 -190 -36 -44 -7 -100 -18
-125 -24 -25 -5 -76 -12 -115 -15 -38 -3 -82 -8 -97 -11 -23 -4 -27 -3 -22 10
3 9 11 16 18 16 6 0 4 5 -5 10 -12 7 -29 5 -54 -6 -48 -20 -55 -12 -13 15 l33
21 -28 0 c-16 0 -72 -11 -125 -24 -84 -21 -176 -39 -312 -61 -19 -3 -83 -9
-142 -12 -80 -4 -108 -3 -108 6 0 7 -6 11 -12 10 -29 -3 -37 2 -33 23 5 24 98
117 145 144 15 9 32 25 38 35 9 15 8 19 -8 24 -11 4 -20 10 -20 15 0 5 -25 16
-55 25 -31 9 -53 20 -50 25 4 6 0 10 -8 10 -21 0 -12 61 12 80 10 8 22 26 26
40 4 14 14 34 21 45 8 11 14 27 14 36 0 19 -33 59 -48 59 -6 0 -12 4 -14 8 -8
21 -136 71 -193 76 -82 7 -158 22 -233 48 -52 17 -63 25 -59 40 3 10 1 16 -4
12 -12 -7 -11 8 0 39 10 25 135 120 159 120 6 0 12 4 12 7 0 4 14 13 30 20 17
7 30 17 30 23 0 6 3 8 6 5 6 -6 64 50 64 61 0 11 -20 36 -20 26 0 -5 -5 -2
-11 8 -5 9 -20 17 -31 17 -12 0 -36 5 -54 12 -31 11 -35 10 -58 -15 -28 -30
-37 -32 -53 -16 -15 15 -5 39 16 40 24 1 -68 29 -118 35 -40 5 -105 21 -230
55 -25 7 -46 19 -48 29 -3 9 -23 25 -46 34 -88 37 -85 35 -59 35 21 1 152 49
194 72 10 5 22 9 27 9 6 0 22 11 37 25 14 13 30 23 34 20 4 -3 19 6 32 18 14
13 40 29 58 37 46 19 90 58 90 81 0 11 -9 27 -20 36 -11 10 -20 23 -20 29 0
11 -58 64 -71 64 -3 0 -12 15 -19 33 -6 17 -15 39 -20 48 -4 8 -4 22 1 31 6
11 4 18 -6 22 -8 3 -15 14 -15 25 0 11 -4 23 -10 26 -5 3 -8 25 -7 50 1 24 5
41 8 39 4 -2 9 1 11 7 5 14 77 28 145 29 42 0 51 3 47 15 -4 8 -10 12 -15 9
-5 -3 -9 2 -9 10 0 8 -9 17 -20 21 -11 3 -29 19 -40 35 -23 32 -26 44 -7 35 6
-4 5 -1 -3 7 -8 7 -30 34 -48 60 -37 54 -34 76 16 102 15 9 22 15 15 16 -12 0
-10 30 3 52 4 6 3 8 -4 4 -6 -3 -4 7 4 24 9 16 18 30 20 30 3 0 2 -4 -1 -10
-3 -5 1 -10 9 -10 9 0 17 5 17 10 2 13 6 29 9 35 13 25 -23 60 -101 100 -30
15 -93 64 -124 96 -47 48 -63 68 -58 73 10 10 -7 54 -34 87 -25 30 -26 31 -5
25 16 -5 22 -3 22 7 0 8 7 20 16 27 12 11 15 11 12 0 -2 -7 3 -15 10 -17 7 -3
10 1 6 10 -3 8 -1 18 5 22 6 3 11 -2 12 -12 0 -10 5 -3 10 15 10 34 34 42 59
20 12 -11 12 -10 1 4 -11 15 -10 20 2 32 8 8 17 12 21 9 3 -4 6 -1 6 5 0 7 -7
12 -16 12 -10 0 -14 6 -11 14 3 8 1 32 -5 53 -7 21 -12 40 -13 43 0 3 -6 15
-13 28 -8 14 -9 22 -2 22 5 0 10 8 10 18 0 21 36 59 47 49 10 -11 32 26 33 54
0 17 -9 33 -26 45 -14 10 -42 33 -62 51 -20 17 -40 29 -44 27 -5 -3 -8 -1 -8
5 0 6 -33 29 -73 51 -41 22 -91 58 -111 80 -20 22 -41 40 -47 40 -6 0 -9 6 -6
13 2 6 -6 22 -19 33 -12 12 -20 25 -17 28 4 3 2 6 -4 6 -16 0 -11 29 6 35 14
6 13 9 -4 22 -20 15 -20 15 3 10 12 -3 22 -1 22 4 0 5 -6 9 -14 9 -12 0 -12 6
2 33 18 35 23 137 7 137 -5 0 -3 5 5 10 8 5 16 18 16 29 1 11 -3 18 -7 15 -5
-3 -9 -1 -9 5 0 5 -30 34 -66 63 -37 29 -101 82 -144 118 -42 36 -120 98 -172
139 -100 78 -134 121 -115 140 8 8 5 11 -9 11 -12 0 -21 -7 -21 -15 0 -8 3
-15 7 -15 4 0 7 -6 7 -14 0 -11 -4 -12 -17 -4 -20 13 -55 72 -37 63 6 -4 4 0
-5 8 -10 8 -15 17 -11 20 3 4 1 7 -5 7 -7 0 -12 7 -12 15 0 16 -34 38 -44 28
-3 -3 -6 1 -6 10 0 9 -6 17 -14 17 -7 0 -26 12 -42 27 -26 24 -312 215 -426
284 -44 27 -450 289 -523 337 -119 79 -209 157 -200 172 7 11 78 11 85 0z
m9130 -865 c0 -7 -6 -18 -14 -24 -20 -17 -44 13 -26 33 13 17 40 10 40 -9z
m-3324 -382 c-10 -10 -19 5 -10 18 6 11 8 11 12 0 2 -7 1 -15 -2 -18z m-506
-758 c0 -8 -4 -15 -10 -15 -5 0 -10 7 -10 15 0 8 5 15 10 15 6 0 10 -7 10 -15z
m-3219 -398 c-10 -9 -11 -8 -5 6 3 10 9 15 12 12 3 -3 0 -11 -7 -18z m12135
-188 c3 -6 0 -17 -7 -25 -18 -17 -44 -2 -36 20 7 18 33 21 43 5z m-12036 -389
c0 -5 -2 -10 -4 -10 -3 0 -8 5 -11 10 -3 6 -1 10 4 10 6 0 11 -4 11 -10z
m-4995 -381 c0 -7 -8 -15 -17 -17 -18 -3 -25 18 -11 32 10 10 28 1 28 -15z
m16095 -105 c11 -12 10 -18 -6 -35 -20 -20 -20 -20 -39 0 -14 17 -15 23 -5 36
16 19 34 19 50 -1z m-14852 -21 c-4 -22 -22 -20 -26 1 -2 10 3 16 13 16 10 0
15 -7 13 -17z m13602 -548 c0 -8 -4 -15 -9 -15 -13 0 -22 16 -14 24 11 11 23
6 23 -9z m-9870 -423 c0 -13 -12 -22 -22 -16 -10 6 -1 24 13 24 5 0 9 -4 9 -8z
m12988 -1429 c5 -17 -26 -29 -40 -15 -6 6 -7 15 -3 22 9 14 37 9 43 -7z
m-17043 -44 c0 -7 -8 -15 -17 -17 -18 -3 -25 18 -11 32 10 10 28 1 28 -15z
m7365 -515 c0 -19 -28 -24 -34 -7 -4 9 -4 25 0 36 6 20 7 20 20 2 8 -10 14
-24 14 -31z m760 -1644 c0 -5 -4 -10 -10 -10 -5 0 -10 5 -10 10 0 6 5 10 10
10 6 0 10 -4 10 -10z"/>
<path d="M14687 8045 c-5 -11 0 -15 16 -15 12 0 18 4 12 8 -5 4 -13 11 -16 15
-4 4 -9 1 -12 -8z"/>
<path d="M5301 7374 c0 -11 3 -14 6 -6 3 7 2 16 -1 19 -3 4 -6 -2 -5 -13z"/>
<path d="M11150 5841 c0 -9 -9 -12 -25 -9 -14 3 -25 1 -25 -5 0 -6 -3 -8 -6
-4 -3 3 -28 -18 -55 -46 -27 -28 -46 -53 -44 -55 10 -10 156 70 152 83 -3 7 0
18 6 24 6 6 8 14 4 18 -4 3 -7 1 -7 -6z"/>
</g>
</svg>
